<svg width="25" height="25" viewBox="0 0 25 25" fill="none" xmlns="http://www.w3.org/2000/svg">
<path d="M22.2852 11.7705V21.7705C22.2852 21.9705 22.1652 22.1605 21.9752 22.2305C21.9152 22.2605 21.8452 22.2705 21.7852 22.2705C21.6552 22.2705 21.5252 22.2206 21.4252 22.1206L19.6151 20.2705H10.7852C8.85516 20.2705 7.28516 18.7005 7.28516 16.7705H14.7852C17.5452 16.7705 19.7852 14.5305 19.7852 11.7705V8.42041C21.2252 8.85041 22.2852 10.1905 22.2852 11.7705ZM18.2852 11.7705V6.77051C18.2852 4.84051 16.7152 3.27051 14.7852 3.27051H6.78516C4.85516 3.27051 3.28516 4.84051 3.28516 6.77051V16.7705C3.28516 16.9705 3.40515 17.1605 3.59515 17.2305C3.65515 17.2605 3.72516 17.2705 3.78516 17.2705C3.91516 17.2705 4.04514 17.2206 4.14514 17.1206L5.95517 15.2705H14.7852C16.7152 15.2705 18.2852 13.7005 18.2852 11.7705Z" fill="#D2D2D2"/>
</svg>
