<svg width="22" height="21" viewBox="0 0 22 21" fill="none" xmlns="http://www.w3.org/2000/svg">
<path d="M19.935 2.89309C18.5861 1.25559 16.709 0.353516 14.6485 0.353516C13.461 0.353516 12.3121 0.631666 11.286 1.16083C10.261 0.631666 9.11105 0.353516 7.92355 0.353516C5.86314 0.353516 3.98604 1.25559 2.63708 2.89309C1.17562 4.66705 0.569391 7.08889 1.01418 9.37222C2.0496 14.6795 7.42252 18.3681 9.68502 19.7076C10.1788 19.9983 10.7319 20.1452 11.285 20.1452C11.8381 20.1452 12.3923 19.9983 12.8861 19.7066C15.1486 18.3681 20.5215 14.6795 21.5569 9.37222C22.0027 7.08889 21.3965 4.66705 19.935 2.89309Z" fill="#D2D2D2"/>
</svg>
